<svg version="1.1" xmlns="http://www.w3.org/2000/svg" viewBox="280 70 480 420" width="100%">
<path fill="#111111" d="
M560.883484,354.283752
	C570.570374,357.673584 578.934631,355.460449 585.581482,348.685303
	C616.731750,316.933685 647.647827,284.952393 678.651733,253.057190
	C681.671387,249.950699 684.765076,246.915070 687.746094,243.772324
	C698.172668,232.780029 698.499023,216.656815 688.536987,205.306992
	C676.885376,192.032257 662.278137,184.083771 644.948914,180.835114
	C641.809998,180.246674 640.713928,181.295395 640.041016,184.015533
	C637.213379,195.446045 632.352051,206.019989 625.953674,215.849396
	C623.854858,219.073700 625.658203,220.714401 627.599670,222.619781
	C638.179077,233.002594 648.747803,243.396408 659.349609,253.756302
	C663.953552,258.255096 663.980591,258.561798 659.364929,263.222351
	C655.730225,266.892456 652.056213,270.526093 648.508667,274.279022
	C646.619995,276.277039 645.202698,276.355499 643.165283,274.294006
	C634.148682,265.170776 625.000427,256.177185 615.857544,247.179642
	C614.016479,245.367889 613.413818,243.399612 613.992798,240.859070
	C616.959900,227.839615 615.263611,215.377411 609.019775,203.614136
	C607.555115,200.854889 608.003174,198.680130 609.328247,196.144836
	C611.841309,191.336609 614.688171,186.614731 615.419006,180.587112
	C609.239990,179.790909 603.814941,181.502792 598.548157,183.249237
	C594.368713,184.635162 591.210571,184.080063 588.236755,180.903549
	C583.927673,176.300690 579.470764,171.836151 574.646240,166.869232
	C578.973022,163.520554 584.138733,162.263611 589.104614,160.824570
	C597.257690,158.461960 605.583191,156.564972 614.055664,156.032745
	C618.669434,155.742920 619.242310,153.627625 618.718201,149.930267
	C617.986694,144.769760 616.432495,139.863922 614.208252,135.187561
	C608.612244,123.422386 600.018921,114.232559 589.075684,107.376236
	C578.245789,100.590904 566.244385,102.010361 556.958191,110.822990
	C550.917175,116.555954 544.961670,122.390030 539.201660,128.402802
	C536.766235,130.945145 535.163696,131.020676 532.743530,128.420547
	C528.888672,124.278946 524.699646,120.445663 520.605164,116.530952
	C518.871338,114.873306 518.412415,113.416039 520.414062,111.537216
	C527.457031,104.926514 534.009705,97.726952 541.480896,91.651726
	C561.527100,75.351189 587.909119,75.445076 608.344788,91.320206
	C628.535583,107.005043 640.730347,127.254326 643.175354,152.924423
	C643.489685,156.223846 645.114502,157.112091 647.831116,157.570526
	C667.526367,160.894150 684.854553,169.036728 699.824585,182.416916
	C718.958496,199.518799 724.804932,224.678482 714.496094,247.220901
	C710.221863,256.567596 702.592773,263.158386 695.657532,270.317108
	C667.265625,299.624054 638.832275,328.890839 610.464172,358.220825
	C601.338257,367.656219 591.914001,376.487244 578.243286,378.824554
	C562.837830,381.458405 549.131897,378.074799 537.566650,367.363892
	C532.068359,362.271790 526.935059,356.787506 521.513428,351.609680
	C519.164062,349.365936 518.528748,347.573120 521.255127,345.059448
	C525.047791,341.562744 528.637085,337.828766 532.122070,334.021271
	C534.208435,331.741821 535.768188,331.848328 537.851501,334.020782
	C542.232483,338.589264 546.819946,342.959106 551.286865,347.446045
	C554.008606,350.180084 556.841125,352.735168 560.883484,354.283752
z"/>
<path fill="#111111" d="
M312.331726,360.464905
	C301.851685,336.841431 305.250153,316.520782 322.875214,298.169006
	C355.418243,264.284271 388.097412,230.530304 420.695251,196.698166
	C428.430298,188.670303 437.426910,183.259918 448.668945,181.528427
	C462.591705,179.384033 474.837006,182.989014 485.439087,191.825668
	C492.079468,197.360275 497.947906,203.811127 504.371216,209.620331
	C507.588013,212.529602 507.021515,214.766327 504.227875,217.407898
	C500.718536,220.726120 497.258942,224.112000 493.990112,227.664032
	C491.925537,229.907486 490.388245,229.946655 488.258057,227.743057
	C482.815308,222.112762 477.271393,216.575562 471.640869,211.132568
	C462.653870,202.444824 448.952332,202.535873 440.253937,211.479141
	C406.331940,246.355988 372.451355,281.273315 338.624207,316.242157
	C327.462067,327.781036 327.159424,343.463867 338.100098,355.902039
	C349.058990,368.360931 363.144531,375.483948 379.353973,378.629272
	C382.805420,379.298981 384.571472,378.293427 385.298004,374.690125
	C387.520996,363.664886 391.615082,353.295563 397.298859,343.611206
	C399.164703,340.432098 398.776642,338.299713 396.182129,335.780334
	C386.260712,326.146515 376.636505,316.203979 366.624573,306.667328
	C362.943573,303.161102 362.942535,300.684296 366.665283,297.368927
	C370.388458,294.053162 373.735718,290.305176 377.144501,286.650360
	C379.146179,284.504181 380.954742,284.351074 383.067688,286.460968
	C392.264160,295.643890 401.474640,304.813171 410.744293,313.922058
	C412.541168,315.687775 412.716125,317.592010 412.170654,319.848480
	C409.255005,331.909393 410.105591,343.642395 415.593628,354.857422
	C416.794708,357.311859 416.146332,359.323303 415.186829,361.505219
	C412.585083,367.421295 410.023682,373.355438 408.852570,380.393250
	C415.020905,380.264343 420.742493,379.525330 426.270203,377.975525
	C430.901459,376.676971 434.340973,377.171173 437.710663,381.061554
	C441.813660,385.798553 446.666901,389.885681 451.059937,394.123016
	C449.825317,396.733429 447.807373,396.739441 446.155670,397.321777
	C434.923279,401.282135 423.232086,402.945190 411.446014,403.975708
	C408.279205,404.252625 406.917236,405.364807 407.341400,408.612183
	C410.243286,430.829315 429.560883,452.298065 446.229126,455.901520
	C457.096069,458.250793 466.723480,456.027496 474.873688,448.304138
	C480.049744,443.399139 485.133057,438.396271 490.732056,432.978546
	C496.052307,438.250366 501.106415,443.257111 506.158661,448.265717
	C507.307068,449.404205 507.350952,450.600372 506.242950,451.771210
	C494.746735,463.918854 483.346375,476.164001 465.685760,479.279114
	C446.250336,482.707245 428.860474,478.093964 413.946869,465.402924
	C396.662415,450.694366 386.079315,432.072754 383.567719,409.249268
	C383.106293,405.056274 381.851868,402.689606 376.833466,401.922180
	C357.279449,398.931976 339.959900,390.868317 325.366394,377.280029
	C320.191284,372.461365 315.937469,366.960175 312.331726,360.464905
z"/>
<path fill="#111111" d="
M630.087891,445.006226
	C619.936523,459.954498 607.981995,472.284210 590.443604,477.487610
	C569.173279,483.798126 549.797058,480.278931 533.564880,464.586243
	C499.427826,431.583893 465.387939,398.479309 431.517273,365.203888
	C413.606628,347.607971 413.518555,318.563263 430.872345,300.251953
	C434.423004,296.505371 438.202820,292.974762 441.723969,289.201752
	C444.149200,286.603119 446.259735,286.318573 448.817444,289.026428
	C452.133484,292.537170 455.556610,295.960266 459.112671,299.226135
	C461.511688,301.429352 461.503754,303.211212 459.186066,305.439270
	C455.464203,309.017212 451.781311,312.652618 448.310425,316.471436
	C439.393768,326.281830 439.583466,338.973206 449.080994,348.251495
	C476.368011,374.908539 503.803406,401.413757 531.166199,427.993317
	C537.973877,434.606171 544.705444,441.297333 551.510986,447.912445
	C561.460449,457.583618 575.240173,459.829498 587.411377,453.156769
	C606.136536,442.890961 615.963135,426.359283 619.623352,405.735474
	C620.202637,402.471588 618.656372,401.363007 615.644226,400.897339
	C604.203796,399.128693 593.361511,395.445648 583.052795,390.190247
	C582.017761,389.662567 581.004150,389.078949 580.040894,388.431580
	C579.664795,388.178864 579.455139,387.678284 579.118835,387.221497
	C580.302185,385.150848 582.528442,385.324310 584.313599,384.760345
	C589.594727,383.091980 594.819275,381.113617 599.102539,377.659271
	C603.205017,374.350677 607.134888,373.537140 611.905823,375.673523
	C613.353577,376.321777 614.998413,377.041229 617.014282,376.257965
	C618.127869,373.294617 616.171326,370.683014 615.495850,367.920013
	C615.098083,366.292877 614.098694,364.578217 615.543030,363.229919
	C621.212952,357.936951 627.008423,352.778381 633.043701,347.310242
	C637.123901,353.625488 639.145142,361.338867 641.095032,368.998108
	C643.565369,378.701508 643.427002,378.976532 653.252747,376.644348
	C668.516541,373.021301 681.263672,365.213470 690.521057,352.377106
	C698.414856,341.431458 697.620728,328.005829 688.633911,317.886108
	C684.766663,313.531281 680.567932,309.461243 676.385742,305.399811
	C674.385864,303.457764 674.323059,301.950104 676.349243,299.996307
	C680.305908,296.180939 684.093262,292.190552 687.985840,288.307831
	C689.273438,287.023529 690.620239,285.383118 692.596375,287.277863
	C703.418884,297.654480 714.744995,307.625854 718.206177,323.301605
	C722.184509,341.319550 718.303223,357.432922 706.303833,371.289215
	C691.143494,388.795685 671.649109,398.429871 648.765686,401.300598
	C645.854980,401.665741 643.635010,402.203674 643.346497,405.777527
	C642.213013,419.816986 637.523621,432.693787 630.087891,445.006226
z"/>
<path fill="#111111" d="
M533.855164,139.142548
	C552.768982,156.996826 570.956360,175.143875 590.223999,192.060593
	C612.658020,211.757401 614.561890,243.707962 590.722168,265.564819
	C587.313965,268.689545 584.807739,272.806244 579.437256,275.625549
	C574.959778,270.899567 570.295898,265.963531 565.615723,261.043060
	C563.661438,258.988403 564.841736,257.487793 566.401489,255.968689
	C569.743408,252.713730 573.134521,249.503036 576.355164,246.130707
	C586.799988,235.193924 586.801819,222.523483 575.940002,212.185150
	C540.460571,178.415802 504.888245,144.743683 469.247711,111.144394
	C459.618256,102.066437 447.276581,100.811752 436.204803,108.026634
	C419.771820,118.735100 409.229095,133.437195 406.981476,153.456161
	C406.595459,156.894226 407.471039,158.224625 410.894196,158.750427
	C422.180206,160.483948 432.772491,164.429932 442.967133,169.489334
	C444.723846,170.361160 446.678986,170.994095 447.856567,173.148163
	C446.522675,174.881790 444.361694,174.698776 442.591278,175.197357
	C436.939911,176.788849 431.391663,178.772171 426.750641,182.334534
	C423.054688,185.171494 419.593719,186.218094 415.317902,184.140625
	C414.325745,183.658585 413.153748,183.143661 411.999451,183.949097
	C411.841187,184.234512 411.480225,184.641388 411.565338,184.786301
	C415.733795,191.883179 411.699036,196.424515 406.801239,200.914642
	C403.515045,203.927307 400.588379,207.332169 397.013336,211.071548
	C393.059570,206.047653 391.304077,200.720322 389.343781,195.544510
	C388.109436,192.285477 387.070038,188.918350 386.330872,185.515503
	C385.566193,181.995361 383.809357,180.997314 380.301819,181.598969
	C363.956512,184.402771 350.117065,191.728043 338.911438,203.982361
	C327.202362,216.787247 327.391449,232.143387 339.462402,244.569000
	C342.712555,247.914658 346.039398,251.188431 349.403503,254.419724
	C351.511200,256.444183 351.585541,258.255066 349.466492,260.357300
	C345.563721,264.229126 341.800903,268.241608 337.936951,272.153198
	C336.611267,273.495239 335.273743,274.713257 333.314026,272.804260
	C324.125916,263.854095 314.575684,255.272308 309.896637,242.735611
	C302.099274,221.844086 307.543640,200.894821 325.394012,183.758255
	C339.792114,169.935913 356.864441,161.618393 376.547821,158.629211
	C380.346069,158.052399 382.562714,156.981339 383.053436,152.309647
	C386.099030,123.316895 400.573181,101.353058 425.527679,86.558907
	C444.177032,75.502731 468.138092,77.735847 484.192963,92.241722
	C500.996338,107.423874 517.161987,123.311836 533.855164,139.142548
z"/>
<path fill="#111111" d="
M425.825806,236.855072
	C433.985535,228.447021 431.769928,229.093414 439.411041,236.583542
	C461.049469,257.794281 482.518677,279.178070 504.224487,300.319244
	C507.525269,303.534149 507.845001,305.590332 504.197144,308.583038
	C500.864899,311.316803 497.846191,314.478180 494.953888,317.689423
	C492.309418,320.625458 490.329651,320.376404 487.595520,317.644531
	C469.933044,299.996704 452.132904,282.486633 434.383209,264.926025
	C429.531891,260.126404 424.808624,255.190384 419.814728,250.544693
	C417.008759,247.934402 416.632141,245.824554 419.653076,243.186188
	C421.777039,241.331207 423.619171,239.153534 425.825806,236.855072
z"/>
<path fill="#111111" d="
M595.896973,327.951508
	C593.263245,331.168121 591.494202,329.439178 589.563171,327.537659
	C572.948792,311.176910 556.304321,294.846771 539.653625,278.522919
	C533.708008,272.693939 527.782349,266.842163 521.726074,261.129547
	C518.887451,258.451965 518.264893,256.244843 521.593567,253.384399
	C525.123047,250.351486 528.356995,246.959290 531.577942,243.588196
	C533.742004,241.323196 535.377930,241.194290 537.764954,243.538727
	C560.338745,265.710205 582.954224,287.840668 605.739502,309.794220
	C609.151306,313.081482 609.081665,315.172546 605.673279,318.147003
	C602.293762,321.096222 599.309631,324.498413 595.896973,327.951508
z"/>
<path fill="#111111" d="
M521.004639,335.002411
	C509.753540,346.394348 498.697693,357.480988 487.802032,368.722900
	C485.338226,371.264954 483.515930,371.920715 480.884247,369.002319
	C476.670410,364.329498 472.192017,359.895264 467.508118,355.030548
	C474.214325,348.335663 481.037933,341.552368 487.829773,334.737335
	C502.765289,319.750763 517.769104,304.830475 532.543945,289.686920
	C535.719604,286.432068 537.868774,285.996033 540.971191,289.586182
	C543.791077,292.849426 547.001892,295.831085 550.336304,298.577606
	C553.579529,301.249023 552.917786,303.284882 550.289490,305.866364
	C540.550232,315.432129 530.925598,325.114655 521.004639,335.002411
z"/>
<path fill="#111111" d="
M498.910248,265.910400
	C495.493073,269.028931 492.970642,272.601807 488.119995,275.798737
	C483.571075,270.886902 478.961456,265.912750 474.355652,260.934998
	C472.026764,258.417999 474.353851,257.039459 475.784851,255.607254
	C488.129700,243.252335 500.516785,230.939636 512.894775,218.617844
	C520.912048,210.636917 528.902954,202.629074 536.967896,194.696533
	C541.713623,190.028656 541.794556,190.055161 546.899353,194.636826
	C549.746094,197.191864 552.356628,200.024765 555.314331,202.437378
	C558.442078,204.988647 558.094604,206.902451 555.346985,209.620972
	C536.543457,228.225418 517.873413,246.964722 498.910248,265.910400
z"/>
</svg>